<?xml version="1.0" standalone="no"?>
<!DOCTYPE svg PUBLIC "-//W3C//DTD SVG 20010904//EN"
 "http://www.w3.org/TR/2001/REC-SVG-20010904/DTD/svg10.dtd">
<svg  version="1.0" xmlns="http://www.w3.org/2000/svg"
 width="35" height="35" viewBox="0 0 512.000000 512.000000"
 preserveAspectRatio="xMidYMid meet">

<g transform="translate(0.000000,512.000000) scale(0.100000,-0.100000)"
fill="#000000" stroke="none">
<path d="M1150 4671 c-72 -23 -125 -57 -182 -118 -58 -63 -86 -116 -104 -202
-21 -100 -21 -3483 1 -3584 18 -85 55 -154 114 -212 63 -62 95 -82 170 -105
62 -20 94 -20 1410 -20 1471 0 1396 -3 1497 56 53 31 136 119 164 173 50 99
50 83 50 1466 l0 1290 -637 637 -638 638 -895 -1 c-827 0 -899 -1 -950 -18z
m1620 -936 l0 -535 535 0 535 0 0 -1175 0 -1175 -1280 0 -1280 0 0 1710 0
1710 745 0 745 0 0 -535z"/>
<path d="M1710 2345 l0 -215 850 0 850 0 0 215 0 215 -850 0 -850 0 0 -215z"/>
<path d="M1710 1495 l0 -215 850 0 850 0 0 215 0 215 -850 0 -850 0 0 -215z"/>
</g>
</svg>
