<svg width="15" height="20" viewBox="0 0 15 20" fill="none" xmlns="http://www.w3.org/2000/svg">
<g id="ICON">
<path id="Fill 1" fill-rule="evenodd" clip-rule="evenodd" d="M13.0219 8.85665H11.7974V6.24563C11.7974 3.71502 9.71451 1.63257 7.18472 1.63257C4.65452 1.63257 2.57166 3.71502 2.57166 6.24563V8.85665H1.34717V6.24563C1.34717 3.01951 3.96105 0.408081 7.18472 0.408081C10.4084 0.408081 13.0219 3.01951 13.0219 6.24563V8.85665Z" fill="white"/>
<path id="Fill 4" fill-rule="evenodd" clip-rule="evenodd" d="M1.95959 9.51079C1.59347 9.51079 1.30776 9.7961 1.30776 10.1626V18.0006C1.30776 18.3675 1.59347 18.6528 1.95959 18.6528H12.4098C12.7759 18.6528 13.0612 18.3675 13.0612 18.0006V10.1626C13.0612 9.7961 12.7759 9.51079 12.4098 9.51079H1.95959ZM12.4098 19.9585H1.95959C0.899592 19.9585 0 19.061 0 18.0006V10.1626C0 9.10263 0.899592 8.20508 1.95959 8.20508H12.4098C13.4694 8.20508 14.369 9.10263 14.369 10.1626V18.0006C14.369 19.1026 13.4694 19.9585 12.4098 19.9585Z" fill="white"/>
<path id="Fill 7" fill-rule="evenodd" clip-rule="evenodd" d="M8.49041 12.1221C8.49041 12.8572 7.92021 13.4278 7.1847 13.4278C6.4496 13.4278 5.87939 12.8572 5.87939 12.1221C5.87939 11.387 6.4496 10.8164 7.1847 10.8164C7.92021 10.8164 8.49041 11.4287 8.49041 12.1221Z" fill="white"/>
<path id="Fill 9" fill-rule="evenodd" clip-rule="evenodd" d="M7.51177 12.1222H6.85748L6.20605 16.0414H8.16361L7.51177 12.1222Z" fill="white"/>
</g>
</svg>
